<svg width="25" height="25" viewBox="0 0 25 25" fill="none" xmlns="http://www.w3.org/2000/svg">
<path d="M8.06768 5.48853C8.06745 5.96 7.87928 6.41207 7.54458 6.74528C7.20987 7.07849 6.75605 7.26556 6.28295 7.26532C5.80984 7.26508 5.35621 7.07757 5.02184 6.74402C4.68748 6.41047 4.49976 5.95822 4.5 5.48675C4.50024 5.01528 4.6884 4.56322 5.02311 4.23C5.35781 3.89679 5.81163 3.70973 6.28473 3.70996C6.75784 3.7102 7.21147 3.89771 7.54584 4.23126C7.8802 4.56481 8.06792 5.01706 8.06768 5.48853ZM8.1212 8.58169H4.55352V19.71H8.1212V8.58169ZM13.7581 8.58169H10.2083V19.71H13.7225V13.8703C13.7225 10.6171 17.9769 10.3149 17.9769 13.8703V19.71H21.5V12.6615C21.5 7.17732 15.203 7.38176 13.7225 10.0749L13.7581 8.58169Z" fill="#FCFBFA"/>
</svg>
