<svg width="52" height="13" viewBox="0 0 52 13" fill="none" xmlns="http://www.w3.org/2000/svg">
<path d="M14.2528 4.58831V10.0649C14.2528 10.1466 14.187 10.2123 14.1052 10.2123H11.3469C11.2651 10.2123 11.1993 10.1466 11.1993 10.0649V4.73408C11.1993 4.39129 11.1801 3.99885 11.0357 3.68169C10.9699 3.54714 10.8816 3.43501 10.7757 3.35332C10.6024 3.21877 10.3794 3.15309 10.0938 3.15309C9.56105 3.15309 9.14867 3.3357 9.0187 3.63043C8.86948 3.94919 8.86948 4.38489 8.86948 4.73568V10.0649C8.86948 10.1466 8.80369 10.2123 8.72186 10.2123H6.0374C5.95556 10.2123 5.88978 10.1466 5.88978 10.0649L5.88336 4.73408C5.88336 4.39129 5.8641 3.99885 5.71969 3.68169C5.6539 3.54714 5.56565 3.43501 5.45975 3.35332C5.28645 3.21877 5.06342 3.15309 4.7778 3.15309C4.24508 3.15309 3.83271 3.3357 3.70274 3.63043C3.55351 3.94919 3.55351 4.38489 3.55351 4.73568V10.0649C3.55351 10.1466 3.48772 10.2123 3.40589 10.2123H0.647621C0.565788 10.2123 0.5 10.1466 0.5 10.0649V0.699124C0.5 0.617432 0.565788 0.551758 0.647621 0.551758H3.2326C3.31443 0.551758 3.38022 0.617432 3.38022 0.699124V1.09477C3.38022 1.15404 3.446 1.18928 3.49575 1.15564C5.57849 -0.274775 7.60667 1.31262 7.62753 1.33024C7.70134 1.3879 7.77194 1.45037 7.83613 1.51284C7.89229 1.56891 7.94524 1.62497 7.99659 1.67943C8.05756 1.74671 8.16346 1.7435 8.22123 1.67302C8.37527 1.48401 8.56782 1.30621 8.78604 1.15083C9.06844 0.949006 9.37492 0.80164 9.67016 0.719948C11.4143 0.125677 12.9291 1.31742 12.9451 1.32863C13.0189 1.3863 13.0895 1.44877 13.1537 1.51124C14.0972 2.45791 14.256 3.22518 14.256 4.58511L14.2528 4.58831Z" fill="#F3F1EC"/>
<path d="M24.6081 5.38601C24.6081 8.05142 22.405 10.2203 19.6981 10.2203C16.9912 10.2203 14.7881 8.05142 14.7881 5.38601C14.7881 2.72061 16.9912 0.551758 19.6981 0.551758C22.405 0.551758 24.6081 2.72061 24.6081 5.38601ZM21.8386 5.38601C21.8386 4.2247 20.8791 3.27803 19.6981 3.27803C18.5171 3.27803 17.5576 4.2231 17.5576 5.38601C17.5576 6.54893 18.5171 7.49399 19.6981 7.49399C20.8791 7.49399 21.8386 6.54893 21.8386 5.38601Z" fill="#F3F1EC"/>
<path d="M32.1711 7.27771C32.147 7.60608 32.0636 7.95367 31.9192 8.31568C31.3576 9.50902 30.0595 10.2202 28.4453 10.2202C28.2222 10.2202 27.9928 10.2058 27.7633 10.1802C27.0365 10.0953 26.401 9.90147 25.8747 9.60673C25.3324 9.23992 24.92 8.72894 24.6408 8.08341C24.6023 7.99692 24.6537 7.896 24.7467 7.87678L27.3189 7.32416C27.3782 7.31134 27.4408 7.33697 27.4745 7.38663C27.6542 7.65573 27.9607 7.78548 28.1276 7.8063C28.5207 7.85275 28.7245 7.74864 28.8272 7.65093C28.9299 7.55322 28.978 7.42027 28.9587 7.2761C28.9186 6.95094 28.7229 6.80037 27.728 6.32623L27.7152 6.31982C27.5178 6.22532 27.2707 6.10839 26.9947 5.97223C26.8054 5.89054 26.6193 5.80084 26.4476 5.70953L26.4331 5.70153C26.4091 5.68711 26.385 5.67269 26.3577 5.65828C25.4656 5.1473 24.9441 4.5258 24.8093 3.80979C24.6184 2.78623 25.2762 1.91805 25.411 1.75467C25.61 1.53042 25.8427 1.33339 26.101 1.16841C26.8808 0.671848 27.8885 0.465215 28.9363 0.588554C29.5637 0.662237 30.1333 0.830427 30.6291 1.08992C30.865 1.21326 31.0832 1.35902 31.279 1.52401C31.4138 1.64254 31.8341 2.05901 31.9641 2.69493C31.9802 2.77502 31.9272 2.85351 31.847 2.87113L29.315 3.38211C29.2428 3.39652 29.1738 3.35648 29.1465 3.2892C29.0759 3.113 28.9202 2.9368 28.5849 2.89676C28.3634 2.87113 28.1629 2.9368 28.0345 3.07776C27.9382 3.18509 27.8965 3.31803 27.9286 3.42856C27.9767 3.59675 28.15 3.86425 29.0951 4.24708C29.2829 4.32077 29.4546 4.38644 29.6279 4.45692C29.8477 4.53541 30.0611 4.62031 30.2601 4.7084C30.8618 4.98872 32.2513 5.80084 32.1695 7.28091L32.1711 7.27771Z" fill="#F3F1EC"/>
<path d="M51.1646 0.74878L48.1062 8.97086L46.7504 12.812C46.7295 12.8713 46.6734 12.9097 46.6108 12.9097H43.7386C43.6375 12.9097 43.5669 12.8104 43.599 12.7159L44.7238 9.38733C44.735 9.35529 44.7334 9.32166 44.7238 9.28962L41.497 0.750382C41.4617 0.654274 41.5323 0.551758 41.6366 0.551758H44.2103C44.2729 0.551758 44.3275 0.590201 44.3499 0.647866L46.1856 5.34277C46.2337 5.47251 46.4182 5.47091 46.4632 5.33956L48.164 0.65107C48.1849 0.591803 48.241 0.551758 48.3036 0.551758H51.025C51.1277 0.551758 51.1983 0.652672 51.1646 0.74878Z" fill="#F3F1EC"/>
<path d="M41.7962 7.4107C41.0164 9.06697 39.3123 10.2187 37.3387 10.2187C34.6318 10.2187 32.4287 8.04982 32.4287 5.38601C32.4287 2.72221 34.6318 0.551758 37.3387 0.551758C40.0456 0.551758 42.2487 2.72061 42.2487 5.38441C42.2487 5.67754 42.2214 5.96427 42.1717 6.24298C42.1589 6.31346 42.0963 6.36632 42.0241 6.36632H35.548C35.4325 6.36632 35.3619 6.49126 35.4212 6.59057C35.8192 7.26494 36.5316 7.68301 37.3195 7.68301C37.9886 7.68301 38.6128 7.38827 39.0572 6.82123C39.0909 6.77799 39.1455 6.75556 39.2 6.76517L41.6807 7.21047C41.777 7.22809 41.8363 7.33221 41.7946 7.42031M39.3573 4.16063C39.2417 3.47986 38.4539 2.94966 37.451 2.94966C36.5396 2.94966 35.6748 3.47666 35.5464 4.15743C35.5288 4.24873 35.5994 4.33202 35.6924 4.33202H39.2113C39.3027 4.33202 39.3733 4.24873 39.3573 4.15903V4.16063Z" fill="#F3F1EC"/>
</svg>
