<svg width="26" height="26" viewBox="0 0 26 26" fill="none" xmlns="http://www.w3.org/2000/svg">
<path d="M5.5 4.03608C5.5 3.20906 6.16938 2.53807 6.99639 2.53608L19.9964 2.50482C20.8262 2.50282 21.5 3.17498 21.5 4.00482V20C21.5 20.8284 20.8284 21.5 20 21.5H7C6.17157 21.5 5.5 20.8284 5.5 20V4.03608Z" fill="#C2C0BC" stroke="#203435"/>
<path d="M13.4395 17L13.4395 11.8672" stroke="#203435" stroke-linecap="round"/>
<path d="M16.8965 17L16.8965 10.6108" stroke="#203435" stroke-linecap="round"/>
<path d="M13.496 10.6816L13.4395 6.09329" stroke="#203435" stroke-linecap="round"/>
<path d="M16.8574 9.53516L16.8574 5.99944" stroke="#203435" stroke-linecap="round"/>
<path d="M9.98828 6.0957L9.98828 13.3858" stroke="#203435" stroke-linecap="round"/>
<path d="M9.98828 14.5938L9.98828 17.0014" stroke="#203435"/>
<rect width="2" height="2" transform="matrix(-4.37114e-08 1 1 4.37114e-08 9 13.5781)" fill="#C2C0BC" stroke="#203435" stroke-linejoin="round"/>
<rect x="12.4512" y="11.8184" width="2" height="2" transform="rotate(-90 12.4512 11.8184)" fill="#C2C0BC" stroke="#203435" stroke-linejoin="round"/>
<rect x="15.9102" y="10.4902" width="2" height="2" transform="rotate(-90 15.9102 10.4902)" fill="#C2C0BC" stroke="#203435" stroke-linejoin="round"/>
<circle cx="20" cy="20" r="5" fill="#203435"/>
<path d="M21.1936 18.5737C20.3244 17.6583 19.1094 18.1542 19.1363 18.987C19.1749 20.179 21.3234 19.616 21.2759 20.8828C21.2287 22.1425 19.3208 22.1579 18.7845 21.1175" stroke="#F3F1EC" stroke-linecap="round"/>
<path d="M20.002 18V17" stroke="#F3F1EC" stroke-linecap="round"/>
<path d="M20 23V22" stroke="#F3F1EC" stroke-linecap="round"/>
</svg>
