<svg width="26" height="26" viewBox="0 0 26 26" fill="none" xmlns="http://www.w3.org/2000/svg">
<path fill-rule="evenodd" clip-rule="evenodd" d="M8 13C10.7614 13 13 10.7614 13 8C13 7.34215 12.873 6.71398 12.6421 6.13867H12.7199H22C23.1046 6.13867 24 7.0341 24 8.13867V20.1387C24 21.2432 23.1046 22.1387 22 22.1387H8C6.89543 22.1387 6 21.2432 6 20.1387V12.584C6.61246 12.8516 7.2889 13 8 13Z" fill="#C2C0BC"/>
<path d="M12.6421 6.13867V5.63867H11.9026L12.178 6.3249L12.6421 6.13867ZM6 12.584L6.20019 12.1258L5.5 11.8199V12.584H6ZM12.5 8C12.5 10.4853 10.4853 12.5 8 12.5V13.5C11.0376 13.5 13.5 11.0376 13.5 8H12.5ZM12.178 6.3249C12.3856 6.84199 12.5 7.40702 12.5 8H13.5C13.5 7.27729 13.3603 6.58597 13.1061 5.95244L12.178 6.3249ZM12.6421 6.63867H12.7199V5.63867H12.6421V6.63867ZM12.7199 6.63867H22V5.63867H12.7199V6.63867ZM22 6.63867C22.8284 6.63867 23.5 7.31024 23.5 8.13867H24.5C24.5 6.75796 23.3807 5.63867 22 5.63867V6.63867ZM23.5 8.13867V20.1387H24.5V8.13867H23.5ZM23.5 20.1387C23.5 20.9671 22.8284 21.6387 22 21.6387V22.6387C23.3807 22.6387 24.5 21.5194 24.5 20.1387H23.5ZM22 21.6387H8V22.6387H22V21.6387ZM8 21.6387C7.17157 21.6387 6.5 20.9671 6.5 20.1387H5.5C5.5 21.5194 6.61929 22.6387 8 22.6387V21.6387ZM6.5 20.1387V12.584H5.5V20.1387H6.5ZM8 12.5C7.35908 12.5 6.75071 12.3663 6.20019 12.1258L5.79981 13.0421C6.47422 13.3368 7.21871 13.5 8 13.5V12.5Z" fill="#203435"/>
<rect x="4" y="20" width="22" height="3" rx="1.5" fill="#203435"/>
<path d="M9 18H10" stroke="#203435" stroke-linecap="round"/>
<path d="M9 16L12 16" stroke="#203435" stroke-linecap="round"/>
<path d="M15 18V16" stroke="#203435" stroke-linecap="round"/>
<path d="M17 18V14" stroke="#203435" stroke-linecap="round"/>
<path d="M19 18V15" stroke="#203435" stroke-linecap="round"/>
<path d="M21 18V13" stroke="#203435" stroke-linecap="round"/>
<path d="M15 12L17 10.2857L19 11.5714L21 9" stroke="#203435" stroke-linecap="round"/>
<path d="M3.97847 11.8125L4.36915 12.1229L4.75992 12.4333L3.08597 15.151C2.80758 15.603 2.19683 15.7101 1.78124 15.3799C1.36565 15.0497 1.332 14.4305 1.70937 14.0572L3.97847 11.8125Z" fill="#203435" stroke="#203435"/>
<circle cx="8" cy="8" r="5" fill="#F3F1EC" stroke="#203435"/>
<path fill-rule="evenodd" clip-rule="evenodd" d="M8 11C7.72386 11 7.5 10.7761 7.5 10.5C7.5 10.2239 7.72386 10 8 10C8.27614 10 8.5 10.2239 8.5 10.5C8.5 10.7761 8.27614 11 8 11Z" fill="#203435"/>
<path d="M8 5L8 9" stroke="#203435" stroke-linecap="round"/>
</svg>
