<svg width="27" height="26" viewBox="0 0 27 26" fill="none" xmlns="http://www.w3.org/2000/svg">
<path fill-rule="evenodd" clip-rule="evenodd" d="M22.34 13.0682C22.3005 12.982 22.2346 12.9097 22.1517 12.8619L19.981 11.6086C19.8982 11.5613 19.803 11.5407 19.7089 11.5497C19.6148 11.5588 19.5266 11.5971 19.4571 11.6591L18.2743 12.7136C18.0437 12.6954 17.8131 12.6935 17.5841 12.7067L16.3773 11.6244C16.3061 11.5608 16.2168 11.5206 16.1222 11.5096C16.0276 11.4987 15.9326 11.5176 15.8508 11.5636L13.7088 12.7681C13.627 12.8142 13.5626 12.8851 13.5251 12.9705C13.4876 13.056 13.4788 13.1516 13.5 13.2436L13.8566 14.8044C13.7309 14.9906 13.6185 15.1853 13.5201 15.3872L11.9901 15.8588C11.8999 15.8864 11.8214 15.9419 11.7662 16.0171C11.7109 16.0923 11.6817 16.1835 11.6827 16.2774L11.711 18.7339C11.7119 18.8278 11.7429 18.9197 11.7996 18.9963C11.8562 19.0729 11.9357 19.1303 12.0265 19.1602L13.5672 19.6642C13.6702 19.8698 13.7875 20.0684 13.9182 20.2585L13.5957 21.8096C13.5767 21.9011 13.5877 21.9969 13.6272 22.0831C13.6667 22.1694 13.7326 22.2416 13.8155 22.2895L15.9854 23.5423C16.0683 23.5901 16.1638 23.6111 16.2582 23.6022C16.3526 23.5933 16.4411 23.5549 16.5108 23.4927L17.6949 22.4379C17.9247 22.4557 18.1549 22.4584 18.3818 22.4449L19.5899 23.5269C19.6611 23.5906 19.7504 23.6308 19.845 23.6417C19.9396 23.6527 20.0346 23.6338 20.1163 23.5878L22.2584 22.3832C22.3402 22.3372 22.4045 22.2663 22.4421 22.1808C22.4796 22.0953 22.4884 21.9997 22.4672 21.9077L22.1106 20.347C22.2366 20.1603 22.3494 19.9651 22.448 19.7626L23.977 19.2926C24.0673 19.2649 24.1457 19.2095 24.201 19.1343C24.2562 19.059 24.2855 18.9679 24.2844 18.874L24.2561 16.4174C24.2553 16.3236 24.2243 16.2317 24.1676 16.1551C24.1109 16.0785 24.0315 16.0211 23.9407 15.9912L22.3996 15.4859C22.2974 15.2815 22.1804 15.0847 22.0493 14.8941L22.3715 13.3418C22.3905 13.2502 22.3795 13.1545 22.34 13.0682ZM18.8644 16.0504C18.4492 15.8107 17.9582 15.7415 17.4994 15.8581C17.0406 15.9747 16.6516 16.2676 16.4179 16.6723C16.1843 17.0769 16.1252 17.5602 16.2536 18.0159C16.382 18.4715 16.6874 18.8622 17.1026 19.1019C17.5179 19.3416 18.0089 19.4108 18.4677 19.2942C18.9265 19.1776 19.3155 18.8847 19.5491 18.4801C19.7828 18.0754 19.8419 17.5921 19.7135 17.1364C19.5851 16.6808 19.2797 16.2901 18.8644 16.0504Z" fill="#C2C0BC"/>
<path d="M22.1517 12.8619L22.4017 12.4289L22.4017 12.4289L22.1517 12.8619ZM22.34 13.0682L21.8854 13.2764L21.8854 13.2764L22.34 13.0682ZM19.981 11.6086L20.231 11.1756L20.2293 11.1747L19.981 11.6086ZM19.7089 11.5497L19.6609 11.052L19.7089 11.5497ZM19.4571 11.6591L19.7898 12.0324L19.79 12.0322L19.4571 11.6591ZM18.2743 12.7136L18.235 13.212C18.3709 13.2227 18.5052 13.1775 18.607 13.0868L18.2743 12.7136ZM17.5841 12.7067L17.2503 13.079C17.3495 13.1679 17.4801 13.2136 17.6131 13.2059L17.5841 12.7067ZM16.3773 11.6244L16.7111 11.2522L16.7106 11.2518L16.3773 11.6244ZM16.1222 11.5096L16.1796 11.0129L16.1796 11.0129L16.1222 11.5096ZM15.8508 11.5636L16.0959 11.9994L16.0961 11.9993L15.8508 11.5636ZM13.7088 12.7681L13.4637 12.3323L13.4635 12.3324L13.7088 12.7681ZM13.5 13.2436L13.9875 13.1323L13.9872 13.1313L13.5 13.2436ZM13.8566 14.8044L14.271 15.0842C14.3484 14.9695 14.3749 14.8279 14.344 14.693L13.8566 14.8044ZM13.5201 15.3872L13.6674 15.8651C13.7996 15.8243 13.909 15.7306 13.9696 15.6062L13.5201 15.3872ZM11.9901 15.8588L12.1365 16.3369L12.1374 16.3366L11.9901 15.8588ZM11.6827 16.2774L11.1828 16.2828L11.1828 16.2831L11.6827 16.2774ZM11.711 18.7339L12.211 18.7295L12.211 18.7282L11.711 18.7339ZM11.7996 18.9963L11.3976 19.2937L11.3976 19.2937L11.7996 18.9963ZM12.0265 19.1602L11.8699 19.635L11.871 19.6354L12.0265 19.1602ZM13.5672 19.6642L14.0143 19.4403C13.9545 19.321 13.8495 19.2305 13.7227 19.189L13.5672 19.6642ZM13.9182 20.2585L14.4078 20.3603C14.4355 20.2267 14.4075 20.0876 14.3302 19.9751L13.9182 20.2585ZM13.5957 21.8096L14.0852 21.9114L14.0852 21.9114L13.5957 21.8096ZM13.6272 22.0831L13.1726 22.2913L13.1726 22.2913L13.6272 22.0831ZM13.8155 22.2895L13.5655 22.7225L13.5655 22.7225L13.8155 22.2895ZM15.9854 23.5423L15.7354 23.9753L15.7354 23.9753L15.9854 23.5423ZM16.2582 23.6022L16.3052 24.1L16.3052 24.1L16.2582 23.6022ZM16.5108 23.4927L16.1783 23.1193L16.1779 23.1196L16.5108 23.4927ZM17.6949 22.4379L17.7334 21.9394C17.5978 21.9289 17.4638 21.9741 17.3623 22.0646L17.6949 22.4379ZM18.3818 22.4449L18.7154 22.0725C18.6161 21.9835 18.4854 21.9379 18.3523 21.9458L18.3818 22.4449ZM19.5899 23.5269L19.2563 23.8994L19.2566 23.8996L19.5899 23.5269ZM19.845 23.6417L19.9024 23.145L19.9024 23.145L19.845 23.6417ZM20.1163 23.5878L19.8713 23.1519L19.8711 23.152L20.1163 23.5878ZM22.2584 22.3832L22.5034 22.8191L22.5037 22.8189L22.2584 22.3832ZM22.4421 22.1808L21.9843 21.9798L21.9843 21.9798L22.4421 22.1808ZM22.4672 21.9077L21.9797 22.0191L21.9799 22.0201L22.4672 21.9077ZM22.1106 20.347L21.6962 20.0671C21.6188 20.1818 21.5923 20.3234 21.6231 20.4583L22.1106 20.347ZM22.448 19.7626L22.301 19.2847C22.1686 19.3254 22.0591 19.4192 21.9984 19.5437L22.448 19.7626ZM23.977 19.2926L23.8307 18.8144L23.8301 18.8146L23.977 19.2926ZM24.201 19.1343L23.798 18.8383L23.798 18.8383L24.201 19.1343ZM24.2844 18.874L24.7844 18.8686L24.7844 18.8682L24.2844 18.874ZM24.2561 16.4174L23.7561 16.4218L23.7562 16.4232L24.2561 16.4174ZM24.1676 16.1551L24.5695 15.8577L24.5695 15.8577L24.1676 16.1551ZM23.9407 15.9912L24.0972 15.5163L24.0965 15.5161L23.9407 15.9912ZM22.3996 15.4859L21.9524 15.7095C22.012 15.8289 22.117 15.9194 22.2438 15.961L22.3996 15.4859ZM22.0493 14.8941L21.5597 14.7925C21.532 14.926 21.56 15.065 21.6373 15.1774L22.0493 14.8941ZM22.3715 13.3418L21.882 13.24L21.8819 13.2401L22.3715 13.3418ZM17.4994 15.8581L17.6225 16.3427L17.6225 16.3427L17.4994 15.8581ZM16.2536 18.0159L16.7348 17.8803L16.7348 17.8803L16.2536 18.0159ZM18.4677 19.2942L18.3445 18.8096L18.4677 19.2942ZM19.7135 17.1364L19.2322 17.272L19.7135 17.1364ZM21.9017 13.2949C21.8955 13.2914 21.8895 13.2854 21.8854 13.2764L22.7946 12.86C22.7115 12.6785 22.5736 12.5281 22.4017 12.4289L21.9017 13.2949ZM19.731 12.0417L21.9017 13.2949L22.4017 12.4289L20.231 11.1756L19.731 12.0417ZM19.7568 12.0474C19.747 12.0484 19.7389 12.0462 19.7327 12.0426L20.2293 11.1747C20.0576 11.0764 19.8589 11.0329 19.6609 11.052L19.7568 12.0474ZM19.79 12.0322C19.779 12.042 19.7669 12.0465 19.7568 12.0474L19.6609 11.052C19.4626 11.0711 19.2743 11.1522 19.1242 11.2861L19.79 12.0322ZM18.607 13.0868L19.7898 12.0324L19.1244 11.2859L17.9416 12.3403L18.607 13.0868ZM17.6131 13.2059C17.8199 13.1939 18.0277 13.1957 18.235 13.212L18.3136 12.2151C18.0597 12.1951 17.8063 12.193 17.5552 12.2076L17.6131 13.2059ZM16.0434 11.9967L17.2503 13.079L17.918 12.3345L16.7111 11.2522L16.0434 11.9967ZM16.0648 12.0063C16.0565 12.0054 16.0494 12.002 16.0439 11.9971L16.7106 11.2518C16.5627 11.1195 16.3771 11.0358 16.1796 11.0129L16.0648 12.0063ZM16.0961 11.9993C16.0844 12.0059 16.0733 12.0073 16.0648 12.0063L16.1796 11.0129C15.9819 10.9901 15.7807 11.0293 15.6056 11.1279L16.0961 11.9993ZM13.9539 13.2039L16.0959 11.9994L15.6058 11.1278L13.4637 12.3323L13.9539 13.2039ZM13.9829 13.1716C13.9766 13.1859 13.966 13.1971 13.9541 13.2038L13.4635 12.3324C13.2879 12.4313 13.1487 12.5842 13.0673 12.7695L13.9829 13.1716ZM13.9872 13.1313C13.9899 13.1429 13.9892 13.1572 13.9829 13.1716L13.0673 12.7695C12.986 12.9548 12.9677 13.1604 13.0128 13.356L13.9872 13.1313ZM14.344 14.693L13.9875 13.1323L13.0126 13.355L13.3692 14.9158L14.344 14.693ZM13.9696 15.6062C14.0577 15.4254 14.1584 15.2509 14.271 15.0842L13.4422 14.5246C13.3034 14.7302 13.1792 14.9453 13.0706 15.1683L13.9696 15.6062ZM12.1374 16.3366L13.6674 15.8651L13.3728 14.9094L11.8429 15.381L12.1374 16.3366ZM12.1692 16.3131C12.1599 16.3257 12.1478 16.3334 12.1365 16.3369L11.8438 15.3807C11.6519 15.4394 11.483 15.5581 11.3632 15.7211L12.1692 16.3131ZM12.1827 16.272C12.1828 16.2856 12.1785 16.3004 12.1692 16.3131L11.3632 15.7211C11.2434 15.8842 11.1806 16.0813 11.1828 16.2828L12.1827 16.272ZM12.211 18.7282L12.1827 16.2716L11.1828 16.2831L11.2111 18.7397L12.211 18.7282ZM12.2015 18.6988C12.2066 18.7057 12.2109 18.7161 12.211 18.7295L11.2111 18.7384C11.2128 18.9395 11.2792 19.1336 11.3976 19.2937L12.2015 18.6988ZM12.183 18.6853C12.1901 18.6877 12.1965 18.6921 12.2015 18.6988L11.3976 19.2937C11.516 19.4536 11.6813 19.5729 11.8699 19.635L12.183 18.6853ZM13.7227 19.189L12.182 18.685L11.871 19.6354L13.4118 20.1394L13.7227 19.189ZM14.3302 19.9751C14.2125 19.804 14.1069 19.6253 14.0143 19.4403L13.1202 19.8881C13.2335 20.1144 13.3625 20.3328 13.5063 20.5418L14.3302 19.9751ZM14.0852 21.9114L14.4078 20.3603L13.4287 20.1567L13.1062 21.7078L14.0852 21.9114ZM14.0818 21.8749C14.086 21.8841 14.0882 21.8969 14.0852 21.9114L13.1062 21.7078C13.0651 21.9054 13.0894 22.1097 13.1726 22.2913L14.0818 21.8749ZM14.0655 21.8565C14.0716 21.86 14.0776 21.8659 14.0818 21.8749L13.1726 22.2913C13.2557 22.4728 13.3936 22.6232 13.5655 22.7225L14.0655 21.8565ZM16.2354 23.1093L14.0655 21.8564L13.5655 22.7225L15.7354 23.9753L16.2354 23.1093ZM16.2112 23.1044C16.2211 23.1034 16.2292 23.1057 16.2354 23.1092L15.7354 23.9753C15.9073 24.0745 16.1065 24.1187 16.3052 24.1L16.2112 23.1044ZM16.1779 23.1196C16.189 23.1097 16.2012 23.1053 16.2112 23.1044L16.3052 24.1C16.5041 24.0812 16.6932 24.0001 16.8438 23.8657L16.1779 23.1196ZM17.3623 22.0646L16.1783 23.1193L16.8434 23.866L18.0275 22.8113L17.3623 22.0646ZM18.3523 21.9458C18.1491 21.9578 17.9416 21.9555 17.7334 21.9394L17.6564 22.9364C17.9078 22.9559 18.1607 22.9589 18.4113 22.9441L18.3523 21.9458ZM19.9235 23.1545L18.7154 22.0725L18.0482 22.8174L19.2563 23.8994L19.9235 23.1545ZM19.9024 23.145C19.9107 23.146 19.9177 23.1493 19.9233 23.1543L19.2566 23.8996C19.4045 24.0319 19.5901 24.1156 19.7876 24.1384L19.9024 23.145ZM19.8711 23.152C19.8827 23.1455 19.8939 23.1441 19.9024 23.145L19.7876 24.1384C19.9853 24.1613 20.1864 24.1221 20.3616 24.0235L19.8711 23.152ZM22.0133 21.9474L19.8713 23.1519L20.3614 24.0236L22.5034 22.8191L22.0133 21.9474ZM21.9843 21.9798C21.9906 21.9654 22.0012 21.9542 22.0131 21.9475L22.5037 22.8189C22.6793 22.7201 22.8185 22.5671 22.8999 22.3818L21.9843 21.9798ZM21.9799 22.0201C21.9773 22.0085 21.978 21.9941 21.9843 21.9798L22.8999 22.3818C22.9812 22.1966 22.9995 21.991 22.9544 21.7954L21.9799 22.0201ZM21.6231 20.4583L21.9797 22.0191L22.9546 21.7963L22.598 20.2356L21.6231 20.4583ZM21.9984 19.5437C21.9101 19.7251 21.8091 19.8999 21.6962 20.0671L22.5249 20.6268C22.6641 20.4207 22.7886 20.2051 22.8975 19.9815L21.9984 19.5437ZM23.8301 18.8146L22.301 19.2847L22.5949 20.2405L24.1239 19.7705L23.8301 18.8146ZM23.798 18.8383C23.8073 18.8257 23.8194 18.8179 23.8307 18.8144L24.1233 19.7707C24.3153 19.7119 24.4842 19.5933 24.604 19.4302L23.798 18.8383ZM23.7845 18.8794C23.7843 18.8657 23.7887 18.851 23.798 18.8383L24.604 19.4302C24.7238 19.2671 24.7866 19.0701 24.7844 18.8686L23.7845 18.8794ZM23.7562 16.4232L23.7845 18.8797L24.7844 18.8682L24.7561 16.4117L23.7562 16.4232ZM23.7657 16.4525C23.7606 16.4457 23.7563 16.4353 23.7561 16.4218L24.7561 16.413C24.7543 16.2118 24.688 16.0177 24.5695 15.8577L23.7657 16.4525ZM23.7841 16.466C23.7771 16.4637 23.7707 16.4593 23.7657 16.4525L24.5695 15.8577C24.4512 15.6977 24.2859 15.5785 24.0972 15.5163L23.7841 16.466ZM22.2438 15.961L23.7849 16.4663L24.0965 15.5161L22.5554 15.0108L22.2438 15.961ZM21.6373 15.1774C21.756 15.3501 21.8611 15.5269 21.9524 15.7095L22.8468 15.2624C22.7337 15.036 22.6047 14.8193 22.4613 14.6108L21.6373 15.1774ZM21.8819 13.2401L21.5597 14.7925L22.5389 14.9957L22.8611 13.4434L21.8819 13.2401ZM21.8854 13.2764C21.8812 13.2672 21.8789 13.2545 21.882 13.24L22.861 13.4435C22.9021 13.246 22.8778 13.0417 22.7946 12.86L21.8854 13.2764ZM17.6225 16.3427C17.9532 16.2587 18.3105 16.3079 18.6144 16.4834L19.1144 15.6174C18.5879 15.3134 17.9632 15.2243 17.3762 15.3735L17.6225 16.3427ZM16.8509 16.9223C17.0162 16.6361 17.2925 16.4266 17.6225 16.3427L17.3762 15.3735C16.7886 15.5229 16.287 15.8991 15.9849 16.4223L16.8509 16.9223ZM16.7348 17.8803C16.6425 17.5525 16.6857 17.2084 16.8509 16.9223L15.9849 16.4223C15.6829 16.9454 15.6079 17.568 15.7723 18.1515L16.7348 17.8803ZM17.3526 18.6689C17.0487 18.4934 16.8274 18.2086 16.7348 17.8803L15.7723 18.1515C15.9366 18.7344 16.3261 19.2309 16.8526 19.5349L17.3526 18.6689ZM18.3445 18.8096C18.0139 18.8936 17.6566 18.8444 17.3526 18.6689L16.8526 19.5349C17.3791 19.8389 18.0039 19.928 18.5909 19.7788L18.3445 18.8096ZM19.1161 18.2301C18.9509 18.5162 18.6746 18.7257 18.3445 18.8096L18.5909 19.7788C19.1784 19.6294 19.6801 19.2532 19.9821 18.7301L19.1161 18.2301ZM19.2322 17.272C19.3246 17.5998 19.2813 17.9439 19.1161 18.2301L19.9821 18.7301C20.2842 18.2069 20.3592 17.5843 20.1947 17.0008L19.2322 17.272ZM18.6144 16.4834C18.9184 16.6589 19.1397 16.9437 19.2322 17.272L20.1947 17.0008C20.0305 16.4179 19.6409 15.9214 19.1144 15.6174L18.6144 16.4834Z" fill="#203435"/>
<path d="M13.6702 20.4583H10.2333C8.72591 20.4583 7.50391 19.2363 7.50391 17.7289V16" stroke="#203435"/>
<path d="M3.72862 15.9659L8.07123 15.988C9.58405 15.9957 10.8145 14.7715 10.8145 13.2586L10.8146 7.08177C10.8146 5.57439 9.59266 4.35239 8.08528 4.35234L3.77399 4.35218C2.27196 4.35212 1.05216 5.56568 1.04451 7.06768L1.01315 13.2226C1.00547 14.73 2.22122 15.9582 3.72862 15.9659Z" fill="#F3F1EC" stroke="#203435"/>
<path d="M3.39258 11H8.53117" stroke="#203435" stroke-linecap="round"/>
<path d="M3.39258 13.0547H6.47573" stroke="#203435" stroke-linecap="round"/>
<path d="M3.39258 7H4.4203" stroke="#203435" stroke-linecap="round"/>
<path fill-rule="evenodd" clip-rule="evenodd" d="M12.3086 10C15.07 10 17.3086 7.76142 17.3086 5C17.3086 2.23858 15.07 0 12.3086 0C9.54717 0 7.30859 2.23858 7.30859 5C7.30859 7.76142 9.54717 10 12.3086 10ZM15.01 3.89967C15.1822 3.68379 15.1468 3.36919 14.9309 3.197C14.715 3.02481 14.4004 3.06023 14.2283 3.27611L12.2075 5.80953L10.9946 4.43046C10.8122 4.22311 10.4963 4.20286 10.2889 4.38523C10.0816 4.56761 10.0613 4.88354 10.2437 5.09089L11.8508 6.91811C11.9485 7.02919 12.0904 7.0913 12.2383 7.08775C12.3862 7.08419 12.5249 7.01532 12.6172 6.89967L15.01 3.89967Z" fill="#203435"/>
<path d="M10.6191 4.76067L12.2263 6.58789L14.6191 3.58789" stroke="#F3F1EC" stroke-linecap="round" stroke-linejoin="round"/>
</svg>
