<svg width="26" height="26" viewBox="0 0 26 26" fill="none" xmlns="http://www.w3.org/2000/svg">
<path d="M17.8262 13.6959V13.6959C17.8262 10.2076 15.9604 6.9858 12.9349 5.2496L12.5 5" stroke="#203435"/>
<path d="M17.8262 13.6952V7.37412V3.5" stroke="#203435"/>
<path d="M17.8262 13.6954V13.6954C17.8262 10.9181 19.1803 8.31525 21.4545 6.72108L21.7392 6.52148" stroke="#203435"/>
<circle cx="2" cy="2" r="1.5" transform="matrix(-1 0 0 1 20 12)" fill="#203435" stroke="#203435"/>
<circle cx="1.95652" cy="1.95652" r="1.45652" transform="matrix(-1 0 0 1 24.9141 4)" fill="#F3F1EC" stroke="#203435"/>
<circle cx="1.95652" cy="1.95652" r="1.45652" transform="matrix(-1 0 0 1 19.7832 0)" fill="#F3F1EC" stroke="#203435"/>
<circle cx="1.95652" cy="1.95652" r="1.45652" transform="matrix(-1 0 0 1 12.9121 2)" fill="#F3F1EC" stroke="#203435"/>
<path d="M7.01484 12.7873L7.66881 12.5935L7.28723 12.0282C6.50563 10.8702 5.78651 9.44381 5.56774 7.92554C5.53925 7.72777 5.70224 7.5 6 7.5H12C12.2958 7.5 12.4642 7.72742 12.437 7.93142L12.9113 7.99456L12.437 7.93142C12.2319 9.47246 11.5538 10.9157 10.8242 12.079L10.4802 12.6274L11.0977 12.8217C14.1995 13.7977 16.5 16.901 16.5 20.6154C16.5 21.7432 16.2878 22.5856 15.9344 23.221C15.5834 23.8521 15.0753 24.3115 14.4265 24.6482C13.0987 25.3373 11.2127 25.5 9 25.5C6.48636 25.5 4.61234 25.335 3.36477 24.6532C2.76083 24.3232 2.30582 23.8718 1.9952 23.2427C1.68025 22.6048 1.5 21.7558 1.5 20.6154C1.5 16.856 3.85624 13.7232 7.01484 12.7873Z" fill="#C2C0BC" stroke="#203435"/>
<rect x="6" y="11" width="6" height="2" rx="1" fill="#203435" stroke="#203435" stroke-linecap="round"/>
<path d="M10.5324 17.3171C9.44823 16.1754 7.93284 16.7939 7.96643 17.8326C8.01452 19.3193 10.6942 18.6171 10.6351 20.1972C10.5762 21.7684 8.19653 21.7876 7.52758 20.4899" stroke="#203435" stroke-linecap="round"/>
<path d="M9 16.6667V15.5" stroke="#203435" stroke-linecap="round"/>
<path d="M9 22.4997V21.5" stroke="#203435" stroke-linecap="round"/>
</svg>
