<svg width="26" height="26" viewBox="0 0 26 26" fill="none" xmlns="http://www.w3.org/2000/svg">
<path d="M19.8549 2.0754C19.7859 2.0264 19.7028 2 19.6174 2H17.3818C17.2967 2.00033 17.2139 2.02689 17.1453 2.07586C17.0766 2.12483 17.0256 2.19371 16.9996 2.27264L16.5562 3.61464C16.3699 3.70343 16.191 3.80479 16.02 3.91714L14.6051 3.61936C14.5217 3.60192 14.4348 3.6107 14.3569 3.64444C14.2789 3.67819 14.214 3.73515 14.1714 3.80714L13.0539 5.69286C13.0113 5.76495 12.9932 5.84839 13.0023 5.93114C13.0114 6.01389 13.0473 6.09168 13.1047 6.15329L14.0762 7.19986C14.0622 7.39972 14.0622 7.60028 14.0762 7.80014L13.1047 8.84671C13.0473 8.90832 13.0114 8.98611 13.0023 9.06886C12.9932 9.15161 13.0113 9.23505 13.0539 9.30714L14.1714 11.1921C14.2139 11.2642 14.2788 11.3213 14.3567 11.3552C14.4347 11.3891 14.5216 11.398 14.6051 11.3806L16.02 11.0829C16.1913 11.1958 16.3704 11.2968 16.5562 11.3854L16.9988 12.7274C17.0249 12.8065 17.0761 12.8756 17.1451 12.9246C17.2141 12.9736 17.2972 13 17.3826 13H19.6174C19.7028 13 19.7859 12.9736 19.8549 12.9246C19.9239 12.8756 19.9751 12.8065 20.0012 12.7274L20.4454 11.3846C20.6309 11.2958 20.8098 11.1952 20.9792 11.0836L22.3949 11.3806C22.4783 11.3981 22.5652 11.3893 22.6431 11.3556C22.7211 11.3218 22.786 11.2648 22.8286 11.1929L23.9461 9.30714C23.9887 9.23505 24.0068 9.15161 23.9977 9.06886C23.9886 8.98611 23.9527 8.90832 23.8953 8.84671L22.9238 7.80014C22.9379 7.59976 22.9379 7.39867 22.9238 7.19829L23.8953 6.15329C23.9527 6.09168 23.9886 6.01389 23.9977 5.93114C24.0068 5.84839 23.9887 5.76495 23.9461 5.69286L22.8286 3.80793C22.7861 3.73579 22.7212 3.67867 22.6433 3.64478C22.5653 3.61089 22.4784 3.60199 22.3949 3.61936L20.9792 3.91636C20.809 3.804 20.6309 3.70421 20.4446 3.61543L20.0012 2.27264C19.9751 2.19346 19.9239 2.1244 19.8549 2.0754Z" fill="#F3F1EC" stroke="#203435" stroke-linejoin="round"/>
<path d="M20.3018 15.0548C20.2516 15.0192 20.1912 15 20.1291 15H18.5031C18.4413 15.0002 18.3811 15.0196 18.3311 15.0552C18.2812 15.0908 18.2441 15.1409 18.2252 15.1983L17.9027 16.1743C17.7673 16.2389 17.6371 16.3126 17.5128 16.3943L16.4838 16.1777C16.4231 16.165 16.3599 16.1714 16.3032 16.196C16.2465 16.2205 16.1993 16.2619 16.1683 16.3143L15.3556 17.6857C15.3246 17.7381 15.3114 17.7988 15.3181 17.859C15.3247 17.9192 15.3508 17.9758 15.3926 18.0206L16.0991 18.7817C16.0889 18.9271 16.0889 19.0729 16.0991 19.2183L15.3926 19.9794C15.3508 20.0242 15.3247 20.0808 15.3181 20.141C15.3114 20.2012 15.3246 20.2619 15.3556 20.3143L16.1683 21.6851C16.1992 21.7376 16.2464 21.7792 16.3031 21.8038C16.3598 21.8284 16.4231 21.8349 16.4838 21.8223L17.5128 21.6057C17.6373 21.6878 17.7676 21.7613 17.9027 21.8257L18.2246 22.8017C18.2436 22.8593 18.2809 22.9095 18.331 22.9452C18.3812 22.9808 18.4417 23 18.5037 23H20.1291C20.1912 23 20.2516 22.9808 20.3018 22.9452C20.3519 22.9095 20.3892 22.8593 20.4082 22.8017L20.7313 21.8251C20.8661 21.7606 20.9963 21.6874 21.1194 21.6063L22.1491 21.8223C22.2097 21.835 22.2729 21.8286 22.3296 21.804C22.3863 21.7795 22.4335 21.7381 22.4645 21.6857L23.2772 20.3143C23.3082 20.2619 23.3214 20.2012 23.3147 20.141C23.3081 20.0808 23.282 20.0242 23.2402 19.9794L22.5337 19.2183C22.544 19.0726 22.544 18.9263 22.5337 18.7806L23.2402 18.0206C23.282 17.9758 23.3081 17.9192 23.3147 17.859C23.3214 17.7988 23.3082 17.7381 23.2772 17.6857L22.4645 16.3149C22.4336 16.2624 22.3864 16.2208 22.3297 16.1962C22.273 16.1716 22.2098 16.1651 22.1491 16.1777L21.1194 16.3937C20.9957 16.312 20.8661 16.2394 20.7307 16.1749L20.4082 15.1983C20.3892 15.1407 20.3519 15.0905 20.3018 15.0548Z" fill="#C2C0BC" stroke="#203435" stroke-linejoin="round"/>
<path d="M17.4723 6.46026C17.7747 6.16556 18.1848 6 18.6125 6C19.0401 6 19.4502 6.16556 19.7526 6.46026C20.055 6.75496 20.2249 7.15466 20.2249 7.57143C20.2249 7.9882 20.055 8.3879 19.7526 8.6826C19.4502 8.9773 19.0401 9.14286 18.6125 9.14286C18.1848 9.14286 17.7747 8.9773 17.4723 8.6826C17.1699 8.3879 17 7.9882 17 7.57143C17 7.15466 17.1699 6.75496 17.4723 6.46026Z" stroke="#203435" stroke-linejoin="round"/>
<mask id="path-4-outside-1_1662_8655" maskUnits="userSpaceOnUse" x="4.37402" y="3" width="12" height="15" fill="black">
<rect fill="white" x="4.37402" y="3" width="12" height="15"/>
<path fill-rule="evenodd" clip-rule="evenodd" d="M6.47216 6.89246C6.95248 5.22206 8.49195 4 10.3169 4C12.1416 4 13.6809 5.22181 14.1614 6.89195C13.8183 6.80687 13.4595 6.76172 13.0901 6.76172H7.5455C7.17539 6.76172 6.81586 6.80705 6.47216 6.89246ZM6.37402 15.4767C6.58785 16.3511 7.37658 17 8.31685 17H12.3169C13.2569 17 14.0455 16.3514 14.2595 15.4773C13.887 15.5789 13.4949 15.6331 13.0901 15.6331H7.5455C7.14 15.6331 6.74721 15.5787 6.37402 15.4767Z"/>
</mask>
<path fill-rule="evenodd" clip-rule="evenodd" d="M6.47216 6.89246C6.95248 5.22206 8.49195 4 10.3169 4C12.1416 4 13.6809 5.22181 14.1614 6.89195C13.8183 6.80687 13.4595 6.76172 13.0901 6.76172H7.5455C7.17539 6.76172 6.81586 6.80705 6.47216 6.89246ZM6.37402 15.4767C6.58785 16.3511 7.37658 17 8.31685 17H12.3169C13.2569 17 14.0455 16.3514 14.2595 15.4773C13.887 15.5789 13.4949 15.6331 13.0901 15.6331H7.5455C7.14 15.6331 6.74721 15.5787 6.37402 15.4767Z" fill="#C2C0BC"/>
<path d="M6.47216 6.89246L5.51111 6.61611L5.03247 8.28066L6.71334 7.86294L6.47216 6.89246ZM14.1614 6.89195L13.9207 7.86255L15.6011 8.2793L15.1224 6.61548L14.1614 6.89195ZM6.37402 15.4767L6.63749 14.5121L4.99923 14.0646L5.40265 15.7143L6.37402 15.4767ZM14.2595 15.4773L15.2309 15.7151L15.6347 14.066L13.9965 14.5125L14.2595 15.4773ZM10.3169 3C8.03427 3 6.11134 4.5287 5.51111 6.61611L7.43322 7.16881C7.79363 5.91543 8.94963 5 10.3169 5V3ZM15.1224 6.61548C14.522 4.52839 12.5992 3 10.3169 3V5C11.6839 5 12.8398 5.91524 13.2004 7.16843L15.1224 6.61548ZM13.0901 7.76172C13.3777 7.76172 13.6557 7.79684 13.9207 7.86255L14.4021 5.92136C13.9809 5.8169 13.5413 5.76172 13.0901 5.76172V7.76172ZM7.5455 7.76172H13.0901V5.76172H7.5455V7.76172ZM6.71334 7.86294C6.97877 7.79698 7.25732 7.76172 7.5455 7.76172V5.76172C7.09345 5.76172 6.65295 5.81712 6.23098 5.92198L6.71334 7.86294ZM5.40265 15.7143C5.72337 17.0258 6.90511 18 8.31685 18V16C7.84804 16 7.45233 15.6765 7.3454 15.2392L5.40265 15.7143ZM8.31685 18H12.3169V16H8.31685V18ZM12.3169 18C13.7283 18 14.9098 17.0262 15.2309 15.7151L13.2882 15.2395C13.1812 15.6766 12.7856 16 12.3169 16V18ZM13.9965 14.5125C13.7089 14.5909 13.4052 14.6331 13.0901 14.6331V16.6331C13.5845 16.6331 14.0651 16.5668 14.5225 16.4421L13.9965 14.5125ZM13.0901 14.6331H7.5455V16.6331H13.0901V14.6331ZM7.5455 14.6331C7.22983 14.6331 6.92561 14.5908 6.63749 14.5121L6.11055 16.4414C6.5688 16.5666 7.05017 16.6331 7.5455 16.6331V14.6331Z" fill="#203435" mask="url(#path-4-outside-1_1662_8655)"/>
<path d="M2.5 21.8516C2.5 19.9186 4.067 18.3516 6 18.3516H14.6338C16.5668 18.3516 18.1338 19.9186 18.1338 21.8516V23.2444C18.1338 24.0728 17.4622 24.7444 16.6338 24.7444H4C3.17157 24.7444 2.5 24.0728 2.5 23.2444V21.8516Z" fill="#203435" stroke="#203435"/>
<rect x="3.60938" y="7.26172" width="13.416" height="7.87136" rx="3.93568" fill="#F3F1EC" stroke="#203435"/>
<circle cx="7.54447" cy="11.1988" r="1.10892" fill="#203435"/>
<circle cx="13.0894" cy="11.1988" r="1.10892" fill="#203435"/>
<circle cx="10.3164" cy="1" r="1" fill="#203435"/>
<path d="M10.3164 3L10.3164 1" stroke="#203435"/>
</svg>
