<svg width="26" height="26" viewBox="0 0 26 26" fill="none" xmlns="http://www.w3.org/2000/svg">
<path fill-rule="evenodd" clip-rule="evenodd" d="M15.8954 2C14.388 2 13.166 3.222 13.166 4.72941V6.6882C14.8562 7.62665 16 9.42975 16 11.5C16 13.0663 15.3452 14.4797 14.2945 15.4814C14.7442 15.8076 15.2974 16 15.8954 16H22.1033C23.6107 16 24.8327 14.778 24.8327 13.2706V4.72941C24.8327 3.222 23.6107 2 22.1033 2H15.8954Z" fill="#C2C0BC"/>
<path d="M13.166 6.6882H12.666V6.98248L12.9233 7.12534L13.166 6.6882ZM14.2945 15.4814L13.9495 15.1195L13.515 15.5337L14.0009 15.8862L14.2945 15.4814ZM13.666 4.72941C13.666 3.49814 14.6642 2.5 15.8954 2.5V1.5C14.1119 1.5 12.666 2.94586 12.666 4.72941H13.666ZM13.666 6.6882V4.72941H12.666V6.6882H13.666ZM12.9233 7.12534C14.4611 7.97919 15.5 9.61861 15.5 11.5H16.5C16.5 9.24088 15.2512 7.27411 13.4087 6.25106L12.9233 7.12534ZM15.5 11.5C15.5 12.924 14.9054 14.2083 13.9495 15.1195L14.6395 15.8433C15.7851 14.7512 16.5 13.2087 16.5 11.5H15.5ZM15.8954 15.5C15.4063 15.5 14.9553 15.3431 14.5881 15.0767L14.0009 15.8862C14.5332 16.2722 15.1884 16.5 15.8954 16.5V15.5ZM22.1033 15.5H15.8954V16.5H22.1033V15.5ZM24.3327 13.2706C24.3327 14.5019 23.3345 15.5 22.1033 15.5V16.5C23.8868 16.5 25.3327 15.0541 25.3327 13.2706H24.3327ZM24.3327 4.72941V13.2706H25.3327V4.72941H24.3327ZM22.1033 2.5C23.3345 2.5 24.3327 3.49814 24.3327 4.72941H25.3327C25.3327 2.94586 23.8868 1.5 22.1033 1.5V2.5ZM15.8954 2.5H22.1033V1.5H15.8954V2.5Z" fill="#203435"/>
<path d="M20.5324 7.31713C19.4482 6.17539 17.9328 6.79388 17.9664 7.83255C18.0145 9.31934 20.6942 8.61712 20.6351 10.1972C20.5762 11.7684 18.1965 11.7876 17.5276 10.4899" stroke="#203435" stroke-linecap="round"/>
<path d="M19 6.66667V5.5" stroke="#203435" stroke-linecap="round"/>
<path d="M19 12.4997V11.5" stroke="#203435" stroke-linecap="round"/>
<mask id="path-6-inside-1_1662_7746" fill="white">
<path fill-rule="evenodd" clip-rule="evenodd" d="M7.05233 16.3232C4.69465 17.1319 3 19.3681 3 22C3 23.1046 3.89543 24 5 24H16C17.1046 24 18 23.1046 18 22C18 19.2839 16.1951 16.9892 13.7193 16.25C12.7646 16.9317 11.5958 17.3327 10.3333 17.3327C9.11675 17.3327 7.98715 16.9603 7.05233 16.3232Z"/>
</mask>
<path fill-rule="evenodd" clip-rule="evenodd" d="M7.05233 16.3232C4.69465 17.1319 3 19.3681 3 22C3 23.1046 3.89543 24 5 24H16C17.1046 24 18 23.1046 18 22C18 19.2839 16.1951 16.9892 13.7193 16.25C12.7646 16.9317 11.5958 17.3327 10.3333 17.3327C9.11675 17.3327 7.98715 16.9603 7.05233 16.3232Z" fill="#203435"/>
<path d="M7.05233 16.3232L7.61548 15.4969L7.20161 15.2148L6.72788 15.3773L7.05233 16.3232ZM13.7193 16.25L14.0054 15.2918L13.5365 15.1518L13.1382 15.4362L13.7193 16.25ZM4 22C4 19.8083 5.41082 17.9435 7.37679 17.2691L6.72788 15.3773C3.97848 16.3204 2 18.9279 2 22H4ZM5 23C4.44772 23 4 22.5523 4 22H2C2 23.6569 3.34315 25 5 25V23ZM16 23H5V25H16V23ZM17 22C17 22.5523 16.5523 23 16 23V25C17.6569 25 19 23.6569 19 22H17ZM13.4332 17.2082C15.4971 17.8244 17 19.738 17 22H19C19 18.8297 16.8932 16.154 14.0054 15.2918L13.4332 17.2082ZM13.1382 15.4362C12.3475 16.0008 11.3807 16.3327 10.3333 16.3327V18.3327C11.811 18.3327 13.1818 17.8626 14.3004 17.0638L13.1382 15.4362ZM10.3333 16.3327C9.32393 16.3327 8.38956 16.0244 7.61548 15.4969L6.48919 17.1496C7.58475 17.8962 8.90957 18.3327 10.3333 18.3327V16.3327Z" fill="#203435" mask="url(#path-6-inside-1_1662_7746)"/>
<circle cx="4.08333" cy="6.08333" r="2.08333" fill="#203435"/>
<path fill-rule="evenodd" clip-rule="evenodd" d="M16.0935 10.575C16.1423 10.0968 16.168 9.56355 16.168 8.96932C16.168 6.68508 14.5013 4 10.4862 4C5.7513 4 3.66797 6.68508 3.66797 8.96932C3.66797 10.1813 3.80874 11.5235 4.58802 12.5164C4.53017 12.1868 4.5 11.8475 4.5 11.5013C4.5 8.27964 7.11167 5.66797 10.3333 5.66797C13.2398 5.66797 15.6497 7.79354 16.0935 10.575Z" fill="#203435"/>
<rect x="5" y="6" width="11" height="11" rx="5.5" fill="#F3F1EC" stroke="#203435"/>
<path d="M6.7551 7.41988L5 9.5H15.1667L14.7542 8.38623C14.4862 7.66279 13.9246 7.08652 13.2083 6.8L12.5239 6.52624C12.3418 6.4534 12.1524 6.4004 11.959 6.36816L10.4187 6.11145C9.97957 6.03826 9.52921 6.0736 9.10687 6.21438L7.97805 6.59065C7.50192 6.74936 7.07876 7.03629 6.7551 7.41988Z" fill="#203435"/>
<circle cx="8.66536" cy="11.5013" r="0.833333" fill="#203435"/>
<circle cx="12.8333" cy="11.5013" r="0.833333" fill="#203435"/>
</svg>
