<svg width="26" height="26" viewBox="0 0 26 26" fill="none" xmlns="http://www.w3.org/2000/svg">
<path d="M17 5L11 5C9.89543 5 9 5.89543 9 7L9 12L9 14.5C9 15.6046 9.89543 16.5 11 16.5L17 16.5C18.1046 16.5 19 15.6046 19 14.5L19 12L19 7C19 5.89543 18.1046 5 17 5Z" fill="#F3F1EC" stroke="#203435"/>
<path fill-rule="evenodd" clip-rule="evenodd" d="M9 8.62598L9 12L13.331 15.8979C13.7113 16.2402 14.2887 16.2402 14.669 15.8979L19 12L19 8.62598H20.3843C21.4889 8.62598 22.3843 9.52141 22.3843 10.626V19.7715C22.3843 20.8761 21.4889 21.7715 20.3843 21.7715L7 21.7715C5.89543 21.7715 5 20.8761 5 19.7715V10.626C5 9.52141 5.89543 8.62598 7 8.62598H9Z" fill="#C2C0BC"/>
<path d="M9 8.62598L9.5 8.62598V8.12598H9V8.62598ZM9 12H8.5V12.2227L8.66552 12.3717L9 12ZM13.331 15.8979L12.9966 16.2696V16.2696L13.331 15.8979ZM14.669 15.8979L15.0034 16.2696V16.2696L14.669 15.8979ZM19 12L19.3345 12.3717L19.5 12.2227V12L19 12ZM19 8.62598V8.12598H18.5V8.62598L19 8.62598ZM20.3843 21.7715V21.2715V21.7715ZM7 21.7715V22.2715V21.7715ZM8.5 8.62598L8.5 12H9.5V8.62598L8.5 8.62598ZM8.66552 12.3717L12.9966 16.2696L13.6655 15.5263L9.33448 11.6284L8.66552 12.3717ZM12.9966 16.2696C13.567 16.783 14.433 16.783 15.0034 16.2696L14.3345 15.5263C14.1443 15.6974 13.8557 15.6974 13.6655 15.5263L12.9966 16.2696ZM15.0034 16.2696L19.3345 12.3717L18.6655 11.6284L14.3345 15.5263L15.0034 16.2696ZM19.5 12L19.5 8.62598L18.5 8.62598L18.5 12L19.5 12ZM19 9.12598H20.3843V8.12598H19V9.12598ZM20.3843 9.12598C21.2127 9.12598 21.8843 9.79755 21.8843 10.626H22.8843C22.8843 9.24526 21.765 8.12598 20.3843 8.12598V9.12598ZM21.8843 10.626V19.7715H22.8843V10.626H21.8843ZM21.8843 19.7715C21.8843 20.5999 21.2127 21.2715 20.3843 21.2715V22.2715C21.765 22.2715 22.8843 21.1522 22.8843 19.7715H21.8843ZM20.3843 21.2715L7 21.2715V22.2715L20.3843 22.2715V21.2715ZM7 21.2715C6.17157 21.2715 5.5 20.5999 5.5 19.7715H4.5C4.5 21.1522 5.61929 22.2715 7 22.2715V21.2715ZM5.5 19.7715V10.626H4.5V19.7715H5.5ZM5.5 10.626C5.5 9.79755 6.17157 9.12598 7 9.12598V8.12598C5.61929 8.12598 4.5 9.24527 4.5 10.626H5.5ZM7 9.12598H9V8.12598H7V9.12598Z" fill="#203435"/>
<path d="M9 12L9 7C9 5.89543 9.89543 5 11 5L17 5C18.1046 5 19 5.89543 19 7L19 12" stroke="#203435"/>
<path d="M16 8L12 7.99998" stroke="#203435" stroke-linecap="round"/>
<path d="M16 10L12 9.99998" stroke="#203435" stroke-linecap="round"/>
<path d="M6 9.5L13.3415 15.9238C13.7185 16.2537 14.2815 16.2537 14.6585 15.9238L22 9.5" stroke="#203435" stroke-linejoin="round"/>
<path d="M6 21.7585L12.4167 15.3418" stroke="#203435" stroke-linejoin="round"/>
<path d="M22.3926 21.1626L15.4677 15" stroke="#203435" stroke-linejoin="round"/>
<circle cx="5" cy="20" r="5" fill="#203435"/>
<path fill-rule="evenodd" clip-rule="evenodd" d="M5 23C4.72386 23 4.5 22.7761 4.5 22.5C4.5 22.2239 4.72386 22 5 22C5.27614 22 5.5 22.2239 5.5 22.5C5.5 22.7761 5.27614 23 5 23Z" fill="#F3F1EC"/>
<path d="M5 18L5 21" stroke="#F3F1EC" stroke-linecap="round"/>
</svg>
