<svg width="26" height="26" viewBox="0 0 26 26" fill="none" xmlns="http://www.w3.org/2000/svg">
<path d="M8 4.5H15C15.8284 4.5 16.5 5.17157 16.5 6V6.5H6.5V6C6.5 5.17157 7.17157 4.5 8 4.5Z" fill="#F3F1EC" stroke="#203435"/>
<path d="M4.5 8C4.5 7.17157 5.17157 6.5 6 6.5H17C17.8284 6.5 18.5 7.17157 18.5 8V17C18.5 17.8284 17.8284 18.5 17 18.5H6C5.17157 18.5 4.5 17.8284 4.5 17V8Z" fill="#F3F1EC" stroke="#203435"/>
<path d="M4 19.4883C2.89543 19.4883 2 18.5929 2 17.4883L2 11.3742C2 10.2696 2.89543 9.37422 4 9.37422L8.62662 9.37422C8.62662 9.37422 9.04813 11.7237 11.4787 11.7061C13.9094 11.6885 14.4074 9.37422 14.4074 9.37422L19.348 9.37422C20.4526 9.37422 21.348 10.2696 21.348 11.3742L21.348 17.4883C21.348 18.5929 20.4526 19.4883 19.348 19.4883L4 19.4883Z" fill="#C2C0BC" stroke="#203435" stroke-linejoin="round"/>
<circle cx="19.6133" cy="18.8105" r="5" fill="#203435"/>
<path d="M17.9238 18.5335L19.5337 20.3021L21.9307 17.3984" stroke="#F3F1EC" stroke-linecap="round" stroke-linejoin="round"/>
</svg>
