<svg width="26" height="26" viewBox="0 0 26 26" fill="none" xmlns="http://www.w3.org/2000/svg">
<path d="M10 18C8.89543 18 8 17.1046 8 16L8 15L23 15L23 16C23 17.1046 22.1046 18 21 18L10 18Z" fill="#C2C0BC" stroke="#203435"/>
<path d="M9 15C7.89543 15 7 14.1046 7 13L7 4C7 2.89543 7.89543 2 9 2L22 2C23.1046 2 24 2.89543 24 4L24 13C24 14.1046 23.1046 15 22 15L9 15Z" fill="#F3F1EC" stroke="#203435"/>
<path d="M7 3.00013L14.8373 8.59008C15.1818 8.83583 15.6438 8.83808 15.9907 8.5957L24 3" stroke="#203435" stroke-linejoin="round"/>
<path d="M7 14L14 8" stroke="#203435" stroke-linejoin="round"/>
<path d="M24 14L17 8" stroke="#203435" stroke-linejoin="round"/>
<path d="M3.38867 16L6.56586 16.8513L4.65038 24L3.48745 21.9857L1.47319 23.1487L3.38867 16Z" fill="#203435" stroke="#203435" stroke-linejoin="round"/>
<path d="M8.83984 16L5.66266 16.8513L7.57814 24L8.74107 21.9857L10.7553 23.1487L8.83984 16Z" fill="#203435" stroke="#203435" stroke-linejoin="round"/>
<path d="M7.2348 9.21788C8.1497 8.69234 9.31537 9.15921 9.61456 10.171C9.77541 10.715 10.207 11.1365 10.7546 11.2846C11.7731 11.5599 12.2673 12.7143 11.7634 13.6413C11.4925 14.1397 11.4996 14.7429 11.7821 15.2348C12.3077 16.1497 11.8408 17.3154 10.829 17.6146C10.285 17.7754 9.86346 18.207 9.71544 18.7546C9.44012 19.7731 8.28574 20.2673 7.35874 19.7634C6.86035 19.4925 6.25709 19.4996 5.7652 19.7821C4.8503 20.3077 3.68463 19.8408 3.38544 18.829C3.22459 18.285 2.793 17.8635 2.2454 17.7154C1.22685 17.4401 0.73272 16.2857 1.23661 15.3587C1.50752 14.8603 1.50043 14.2571 1.21788 13.7652C0.692344 12.8503 1.15921 11.6846 2.171 11.3854C2.71498 11.2246 3.13654 10.793 3.28456 10.2454C3.55988 9.22685 4.71426 8.73272 5.64126 9.23661C6.13965 9.50752 6.74291 9.50043 7.2348 9.21788Z" fill="#C2C0BC" stroke="#203435" stroke-miterlimit="10" stroke-linecap="round" stroke-linejoin="round"/>
<path d="M4 14.2186L5.82747 16L9 13" stroke="#203435" stroke-linecap="round" stroke-linejoin="round"/>
</svg>
