<svg width="26" height="26" viewBox="0 0 26 26" fill="none" xmlns="http://www.w3.org/2000/svg">
<path fill-rule="evenodd" clip-rule="evenodd" d="M3 1C1.89543 1 1 1.89543 1 3V16C1 17.1046 1.89543 18 3 18H10.1671C9.52184 16.8391 9.1543 15.5025 9.1543 14.0801C9.1543 10.0373 12.1234 6.68795 16 6.09369V3C16 1.89543 15.1046 1 14 1H3Z" fill="#F3F1EC"/>
<path d="M10.1671 18V18.5H11.0171L10.6042 17.7571L10.1671 18ZM16 6.09369L16.0758 6.58792L16.5 6.52289V6.09369H16ZM1.5 3C1.5 2.17157 2.17157 1.5 3 1.5V0.5C1.61929 0.5 0.5 1.61929 0.5 3H1.5ZM1.5 16V3H0.5V16H1.5ZM3 17.5C2.17157 17.5 1.5 16.8284 1.5 16H0.5C0.5 17.3807 1.61929 18.5 3 18.5V17.5ZM10.1671 17.5H3V18.5H10.1671V17.5ZM10.6042 17.7571C9.99911 16.6685 9.6543 15.4153 9.6543 14.0801H8.6543C8.6543 15.5897 9.04458 17.0096 9.73011 18.2429L10.6042 17.7571ZM9.6543 14.0801C9.6543 10.2879 12.4395 7.14534 16.0758 6.58792L15.9242 5.59947C11.8073 6.23056 8.6543 9.78666 8.6543 14.0801H9.6543ZM15.5 3V6.09369H16.5V3H15.5ZM14 1.5C14.8284 1.5 15.5 2.17157 15.5 3H16.5C16.5 1.61929 15.3807 0.5 14 0.5V1.5ZM3 1.5H14V0.5H3V1.5Z" fill="#203435"/>
<path d="M4 8H8" stroke="#203435" stroke-linecap="round"/>
<path d="M4 5H12.0977" stroke="#203435" stroke-linecap="round"/>
<path d="M4 15H6" stroke="#203435" stroke-linecap="round"/>
<path d="M11.7562 19.8828L12.2917 20.3083L12.8274 20.7339L10.5326 24.4595C10.151 25.0791 9.3137 25.226 8.74396 24.7733C8.17422 24.3206 8.1281 23.4718 8.64544 22.96L11.7562 19.8828Z" fill="#203435" stroke="#203435"/>
<circle cx="17.2344" cy="14.0801" r="8.08009" fill="#C2C0BC" stroke="#203435"/>
<rect x="11.752" y="13.9473" width="1.9012" height="2.8518" stroke="#203435" stroke-linejoin="round"/>
<rect x="15.5547" y="11.0957" width="1.9012" height="5.70359" stroke="#203435" stroke-linejoin="round"/>
<rect x="19.3574" y="10.1445" width="1.9012" height="6.65419" fill="#C2C0BC" stroke="#203435" stroke-linejoin="round"/>
<rect width="1.9012" height="3.8024" transform="matrix(1 0 0 -1 19.3574 16.7988)" fill="#203435" stroke="#203435" stroke-linejoin="round"/>
<rect width="1.9012" height="3.8024" transform="matrix(1 0 0 -1 15.5547 16.7988)" fill="#203435" stroke="#203435" stroke-linejoin="round"/>
</svg>
