<svg width="26" height="26" viewBox="0 0 26 26" fill="none" xmlns="http://www.w3.org/2000/svg">
<path d="M9.68359 7.5C9.68359 4.46243 12.146 2 15.1836 2C18.2212 2 20.6836 4.46243 20.6836 7.5C20.6836 10.5376 18.2212 13 15.1836 13C12.146 13 9.68359 10.5376 9.68359 7.5Z" fill="#F3F1EC" stroke="#203435"/>
<rect x="17.2734" y="5.95312" width="3.31818" height="3.31818" rx="1.65909" stroke="#203435"/>
<rect x="12.957" y="5.95312" width="3.31818" height="3.31818" rx="1.65909" stroke="#203435"/>
<mask id="path-4-inside-1_1662_7710" fill="white">
<path fill-rule="evenodd" clip-rule="evenodd" d="M12.659 20H23.0004C23.5526 20 24.0004 19.55 24.0004 18.9977C24.0004 16.0099 21.802 13.4656 18.8438 13.0456L15.384 12.5544C15.1295 12.5183 14.8712 12.5183 14.6167 12.5544L11.157 13.0456C10.9514 13.0748 10.7495 13.1143 10.5518 13.1634C12.0367 14.2556 13.0004 16.0153 13.0004 18C13.0004 18.7012 12.8801 19.3744 12.659 20Z"/>
</mask>
<path fill-rule="evenodd" clip-rule="evenodd" d="M12.659 20H23.0004C23.5526 20 24.0004 19.55 24.0004 18.9977C24.0004 16.0099 21.802 13.4656 18.8438 13.0456L15.384 12.5544C15.1295 12.5183 14.8712 12.5183 14.6167 12.5544L11.157 13.0456C10.9514 13.0748 10.7495 13.1143 10.5518 13.1634C12.0367 14.2556 13.0004 16.0153 13.0004 18C13.0004 18.7012 12.8801 19.3744 12.659 20Z" fill="#203435"/>
<path d="M12.659 20L11.7161 19.6667L11.2449 21H12.659V20ZM18.8438 13.0456L18.7032 14.0357L18.8438 13.0456ZM15.384 12.5544L15.2435 13.5445L15.2435 13.5445L15.384 12.5544ZM14.6167 12.5544L14.7573 13.5445L14.7573 13.5445L14.6167 12.5544ZM11.157 13.0456L11.0164 12.0556L11.0164 12.0556L11.157 13.0456ZM10.5518 13.1634L10.3106 12.1929L8.24305 12.7067L9.95925 13.969L10.5518 13.1634ZM23.0004 19H12.659V21H23.0004V19ZM23.0004 18.9977C23.0004 18.999 23.0002 18.9994 23.0003 18.9991C23.0004 18.9988 23.0005 18.9985 23.0005 18.9984C23.0006 18.9982 23.0003 18.9989 22.9993 18.9999C22.9982 19.001 22.9978 19.001 22.9987 19.0006C22.9992 19.0004 22.9999 19.0002 23.0005 19C23.0013 18.9999 23.0013 19 23.0004 19V21C24.1078 21 25.0004 20.0994 25.0004 18.9977H23.0004ZM18.7032 14.0357C21.166 14.3854 23.0004 16.5054 23.0004 18.9977H25.0004C25.0004 15.5143 22.4379 12.5459 18.9843 12.0556L18.7032 14.0357ZM15.2435 13.5445L18.7032 14.0357L18.9843 12.0556L15.5246 11.5644L15.2435 13.5445ZM14.7573 13.5445C14.9185 13.5216 15.0822 13.5216 15.2435 13.5445L15.5246 11.5644C15.1768 11.515 14.8239 11.515 14.4761 11.5644L14.7573 13.5445ZM11.2975 14.0357L14.7573 13.5445L14.4761 11.5644L11.0164 12.0556L11.2975 14.0357ZM10.7929 14.1339C10.9576 14.093 11.1259 14.0601 11.2975 14.0357L11.0164 12.0556C10.7769 12.0896 10.5414 12.1356 10.3106 12.1929L10.7929 14.1339ZM9.95925 13.969C11.199 14.8808 12.0004 16.3467 12.0004 18H14.0004C14.0004 15.6838 12.8744 13.6304 11.1443 12.3578L9.95925 13.969ZM12.0004 18C12.0004 18.5862 11.8999 19.1467 11.7161 19.6667L13.6018 20.3332C13.8602 19.6021 14.0004 18.8163 14.0004 18H12.0004Z" fill="#203435" mask="url(#path-4-inside-1_1662_7710)"/>
<path d="M12.8864 7.18164L10.7273 7.18164H9" stroke="#203435" stroke-linecap="round"/>
<rect x="1.5" y="12.5" width="11" height="11" rx="5.5" fill="#C2C0BC" stroke="#203435"/>
<path d="M9 18H6.77778H5" stroke="#203435" stroke-linecap="round"/>
<path d="M7 20L7 17.7778L7 16" stroke="#203435" stroke-linecap="round"/>
</svg>
